<?xml version="1.0" encoding="UTF-8"?>
<svg width="393px" height="68px" viewBox="0 0 393 68" version="1.1" xmlns="http://www.w3.org/2000/svg" xmlns:xlink="http://www.w3.org/1999/xlink">
    <!-- Generator: Sketch 49.3 (51167) - http://www.bohemiancoding.com/sketch -->
    <title>Logo_White Background</title>
    <desc>Created with Sketch.</desc>
    <defs></defs>
    <g id="Page-1" stroke="none" stroke-width="1" fill="none" fill-rule="evenodd">
        <g id="Desktop-HD" transform="translate(-906.000000, -397.000000)" fill-rule="nonzero">
            <g id="Logo_White-Background" transform="translate(906.000000, 397.000000)">
                <path d="M286.218302,24.0074004 C290.043042,28.2175627 291.958883,33.9409698 291.958883,41.1822634 L291.958883,43.688865 C291.958883,44.3712177 291.70899,44.9584124 291.216147,45.4527699 C290.720991,45.9494484 290.135595,46.1954667 289.45996,46.1954667 L257.619523,46.1954667 L257.619523,46.7548102 C257.742155,50.8373216 258.99393,54.0402014 261.367906,56.3611289 C263.741883,58.6820563 266.812318,59.84252 270.576898,59.84252 C273.661217,59.84252 276.053704,59.4409996 277.749732,58.6379587 C279.44576,57.8325969 280.975193,56.6860587 282.33109,55.2006651 C282.823933,54.7063076 283.272813,54.3651313 283.675417,54.1794571 C284.073394,53.9961038 284.614827,53.9032667 285.292775,53.9032667 L288.069356,53.9032667 C288.809778,53.9032667 289.427567,54.149285 289.92041,54.6436426 C290.415567,55.140321 290.628438,55.7275157 290.568279,56.4098683 C290.323014,58.0786152 289.41137,59.7984224 287.837974,61.5600063 C286.266893,63.3239112 284.010921,64.8093047 281.081628,66.016187 C278.150022,67.2230693 274.649217,67.8288313 270.576898,67.8288313 C266.627213,67.8288313 263.110211,66.912065 260.025892,65.087816 C256.941574,63.2635671 254.486614,60.7407189 252.667954,57.5215926 C250.84698,54.3047871 249.752544,50.6841403 249.382334,46.6619731 C249.257387,44.8052311 249.197228,43.3801817 249.197228,42.3914666 C249.197228,41.4004306 249.257387,39.9777021 249.382334,38.1186392 C249.752544,34.2844671 250.84698,30.8170015 252.667954,27.7208843 C254.486614,24.627088 256.925377,22.1831514 259.979616,20.3867536 C263.036168,18.5926767 266.56474,17.6944777 270.576898,17.6944777 C277.178219,17.6944777 282.393563,19.7995589 286.218302,24.0074004 Z M283.626827,38.3971505 L283.626827,38.1186392 C283.626827,34.3448112 282.437525,31.3276055 280.063549,29.0670222 C277.689572,26.8087598 274.524271,25.6807891 270.576898,25.6807891 C266.997423,25.6807891 263.959381,26.8250063 261.460459,29.1134407 C258.961536,31.4041961 257.679682,34.4051553 257.619523,38.1186392 L257.619523,38.3971505 L283.626827,38.3971505 Z M313.297219,55.3378949 C313.816247,55.8570304 314.07698,56.4760934 314.07698,57.1902094 L314.07698,63.7196179 C314.07698,64.4361711 313.816247,65.0527969 313.297219,65.5719324 C312.775754,66.0935051 312.159256,66.3542915 311.445287,66.3542915 L304.914791,66.3542915 C304.200822,66.3542915 303.581887,66.0935051 303.062859,65.5719324 C302.541394,65.0527969 302.280661,64.4361711 302.280661,63.7196179 L302.280661,57.1902094 C302.280661,56.4760934 302.541394,55.8570304 303.062859,55.3378949 C303.581887,54.8163221 304.200822,54.557973 304.914791,54.557973 L311.445287,54.557973 C312.159256,54.557973 312.775754,54.8163221 313.297219,55.3378949 Z M392.22759,42.8533312 C392.22759,44.3387247 392.164991,45.7637742 392.042113,47.1261586 C391.485683,53.4367603 389.306332,58.46621 385.504059,62.2121869 C381.701787,65.9558429 376.554808,67.8288313 370.060805,67.8288313 C363.571439,67.8288313 358.42446,65.9558429 354.622188,62.2121869 C350.819915,58.46621 348.640564,53.4367603 348.084134,47.1261586 C348.021535,46.4438059 347.991396,45.0210774 347.991396,42.8533312 C347.991396,40.5648967 348.021535,39.0795032 348.084134,38.3971505 C348.577966,32.0842279 350.741088,27.057099 354.575819,23.3111221 C358.408231,19.5674662 363.571439,17.6944777 370.060805,17.6944777 C376.554808,17.6944777 381.715698,19.5674662 385.550428,23.3111221 C389.382841,27.057099 391.545963,32.0842279 392.042113,38.3971505 C392.164991,39.7595349 392.22759,41.2449285 392.22759,42.8533312 Z M379.661543,29.2991149 C377.403364,26.8853504 374.203891,25.6784681 370.060805,25.6784681 C365.920038,25.6784681 362.720564,26.8853504 360.464704,29.2991149 C358.206525,31.7128795 356.894277,34.9018338 356.523324,38.861336 C356.460726,39.6040328 356.428267,40.9362451 356.428267,42.8533312 C356.428267,44.712394 356.460726,45.9796204 356.523324,46.6596522 C356.894277,50.6237962 358.206525,53.8104296 360.464704,56.2241941 C362.720564,58.6379587 365.920038,59.84252 370.060805,59.84252 C374.203891,59.84252 377.403364,58.6379587 379.661543,56.2241941 C381.917403,53.8104296 383.23197,50.6237962 383.602923,46.6596522 C383.725801,45.2995887 383.7884,44.0300414 383.7884,42.8533312 C383.7884,41.6789419 383.725801,40.3467295 383.602923,38.861336 C383.23197,34.9018338 381.917403,31.7128795 379.661543,29.2991149 Z M334.521652,65.6066375 C334.024273,66.1066311 333.43625,66.3542915 332.752935,66.3542915 L329.315441,66.3542915 C328.632125,66.3542915 328.044102,66.1066311 327.549048,65.6066375 C327.051668,65.1089803 326.805303,64.5178664 326.805303,63.8309593 L326.805303,20.2824509 C326.805303,19.5978802 327.051668,19.0044298 327.549048,18.5044362 C328.044102,18.006779 328.632125,17.7591187 329.315441,17.7591187 L332.752935,17.7591187 C333.43625,17.7591187 334.024273,18.006779 334.521652,18.5044362 C335.016707,19.0044298 335.263072,19.5978802 335.263072,20.2824509 L335.263072,63.8309593 C335.263072,64.5178664 335.016707,65.1089803 334.521652,65.6066375 Z M333.684939,10.3736991 L328.383436,10.3736991 C327.702445,10.3736991 327.112098,10.1260387 326.619367,9.62604511 C326.121988,9.12838792 325.873298,8.53727399 325.873298,7.85036688 L325.873298,2.52333221 C325.873298,1.83876153 326.121988,1.24764759 326.619367,0.747653989 C327.112098,0.249996803 327.702445,0 328.383436,0 L333.684939,0 C334.36593,0 334.953953,0.249996803 335.449008,0.747653989 C335.946387,1.24764759 336.195077,1.83876153 336.195077,2.52333221 L336.195077,7.85036688 C336.195077,8.53727399 335.946387,9.12838792 335.449008,9.62604511 C334.953953,10.1260387 334.36593,10.3736991 333.684939,10.3736991 Z M236.625348,65.6066375 C236.105065,66.1066311 235.489964,66.3542915 234.775183,66.3542915 L231.179397,66.3542915 C230.464616,66.3542915 229.849515,66.1066311 229.331664,65.6066375 C228.811381,65.1089803 228.553671,64.5178664 228.553671,63.8309593 L228.553671,2.52333221 C228.553671,1.83876153 228.811381,1.24764759 229.331664,0.747653989 C229.849515,0.249996803 230.464616,0 231.179397,0 L234.775183,0 C235.489964,0 236.105065,0.249996803 236.625348,0.747653989 C237.143199,1.24764759 237.40091,1.83876153 237.40091,2.52333221 L237.40091,63.8309593 C237.40091,64.5178664 237.143199,65.1089803 236.625348,65.6066375 Z M73.2049047,31.6200424 C73.2049047,29.0832687 73.9025772,26.7623412 75.3003034,24.6572601 C76.6956484,22.5544998 78.7767603,20.8671855 81.5388767,19.5976382 C84.3009932,18.3304119 87.6822047,17.6944777 91.6825112,17.6944777 C95.6185272,17.6944777 99.0164066,18.2515003 101.873768,19.3655455 C104.73113,20.4795907 106.905106,21.8721471 108.398078,23.5455358 C109.888668,25.2142826 110.636345,26.8250063 110.636345,28.3730649 C110.636345,28.9904316 110.381563,29.5335286 109.872,29.9953932 C109.3672,30.4595786 108.762392,30.6939923 108.064719,30.6939923 L104.921621,30.6939923 C103.714386,30.6939923 102.761932,30.2599789 102.064259,29.391952 C100.095061,26.9178434 96.6352718,25.6784681 91.6825112,25.6784681 C88.7608588,25.6784681 86.3963918,26.2053187 84.5867294,27.2566988 C82.7770669,28.3103998 81.8722356,29.7633004 81.8722356,31.6200424 C81.8722356,33.168101 82.3151267,34.3448112 83.2056711,35.150173 C84.0938344,35.9532139 85.42727,36.6030736 87.2059777,37.0974311 C88.9823043,37.5941096 92.1254023,38.3368064 96.6352718,39.3255215 C102.223795,40.5022317 106.190766,42.2986295 108.540946,44.712394 C110.888745,47.1261586 112.065026,50.0644527 112.065026,53.5295974 C112.065026,56.068692 111.253059,58.4197915 109.636268,60.5852168 C108.017096,62.752963 105.697871,64.5006214 102.683354,65.8305128 C99.6664564,67.1604042 96.1590448,67.8288313 92.1587382,67.8288313 C88.2203412,67.8288313 84.7438843,67.2230693 81.7293675,66.016187 C78.7124696,64.8093047 76.3789575,63.3401577 74.728831,61.6064249 C73.0763234,59.875013 72.2524508,58.2341173 72.2524508,56.6860587 C72.2524508,56.068692 72.5048511,55.525595 73.0144139,55.0637304 C73.5215956,54.597224 74.1240228,54.3651313 74.8240764,54.3651313 L78.2529106,54.3651313 C78.8220018,54.3651313 79.3315647,54.4277963 79.7768369,54.5508055 C80.219728,54.6761355 80.6340455,55.0149909 81.0150271,55.5720135 C83.1104257,58.4197915 86.8249961,59.84252 92.1587382,59.84252 C95.1423002,59.84252 97.7615485,59.2390789 100.016483,58.0321966 C102.269037,56.8253143 103.397695,55.3259952 103.397695,53.5295974 C103.397695,52.0442038 102.840509,50.853568 101.728519,49.9553691 C100.61891,49.0594911 99.0164066,48.3167944 96.9210079,47.7272788 C94.8256093,47.1400841 91.55393,46.3811409 87.1107323,45.4527699 C77.8385932,43.5356838 73.2049047,38.924001 73.2049047,31.6200424 Z M137.34992,17.9699106 C139.210413,16.8040504 141.68952,16.2199379 144.791892,16.2199379 C152.047816,16.2199379 157.133939,18.9631384 160.047937,24.4495394 C161.845638,21.800932 163.892181,19.7671799 166.187564,18.3482831 C168.482948,16.9293863 171.492295,16.2199379 175.210956,16.2199379 C181.290118,16.2199379 185.799488,18.0810576 188.74837,21.800932 C191.690274,25.5208064 193.164715,30.7872784 193.164715,37.597983 L193.164715,63.8002773 C193.164715,64.4955367 192.9182,65.0938382 192.422844,65.5975466 C191.925162,66.1036197 191.334455,66.3542915 190.65305,66.3542915 L187.211137,66.3542915 C186.527406,66.3542915 185.941351,66.1036197 185.445994,65.5975466 C184.948312,65.0938382 184.699471,64.4955367 184.699471,63.8002773 L184.699471,38.5439142 C184.699471,29.0846022 181.038951,24.3549462 173.724887,24.3549462 C170.373674,24.3549462 167.708517,25.4900637 165.722441,27.7602986 C163.73869,30.0305334 162.745652,33.4027782 162.745652,37.8817624 L162.745652,63.8002773 C162.745652,64.4955367 162.496811,65.0938382 162.00378,65.5975466 C161.506098,66.1036197 160.917717,66.3542915 160.233986,66.3542915 L156.792074,66.3542915 C156.108342,66.3542915 155.519961,66.1036197 155.026931,65.5975466 C154.529249,65.0938382 154.280408,64.4955367 154.280408,63.8002773 L154.280408,38.5439142 C154.280408,29.0846022 150.619887,24.3549462 143.305824,24.3549462 C139.95461,24.3549462 137.289454,25.4900637 135.303377,27.7602986 C133.319626,30.0305334 132.326588,33.4027782 132.326588,37.8817624 L132.326588,63.8002773 C132.326588,64.4955367 132.077747,65.0938382 131.584716,65.5975466 C131.087035,66.1036197 130.498654,66.3542915 129.814922,66.3542915 L126.37301,66.3542915 C125.689279,66.3542915 125.100898,66.1036197 124.607867,65.5975466 C124.110185,65.0938382 123.861344,64.4955367 123.861344,63.8002773 L123.861344,19.7198834 C123.861344,19.0269888 124.110185,18.4263224 124.607867,17.9202493 C125.100898,17.4189057 125.689279,17.1658691 126.37301,17.1658691 L129.814922,17.1658691 C130.498654,17.1658691 131.087035,17.4189057 131.584716,17.9202493 C132.077747,18.4263224 132.326588,19.0269888 132.326588,19.7198834 L132.326588,22.6499053 C133.814983,20.6965573 135.489427,19.1381357 137.34992,17.9699106 Z M213.609387,65.6066375 C213.112008,66.1066311 212.523985,66.3542915 211.84067,66.3542915 L208.403176,66.3542915 C207.719861,66.3542915 207.131838,66.1066311 206.636783,65.6066375 C206.139404,65.1089803 205.893039,64.5178664 205.893039,63.8309593 L205.893039,20.2824509 C205.893039,19.5978802 206.139404,19.0044298 206.636783,18.5044362 C207.131838,18.006779 207.719861,17.7591187 208.403176,17.7591187 L211.84067,17.7591187 C212.523985,17.7591187 213.112008,18.006779 213.609387,18.5044362 C214.104442,19.0044298 214.350808,19.5978802 214.350808,20.2824509 L214.350808,63.8309593 C214.350808,64.5178664 214.104442,65.1089803 213.609387,65.6066375 Z M214.536744,9.62604511 C214.041689,10.1260387 213.453666,10.3736991 212.772675,10.3736991 L207.471171,10.3736991 C206.79018,10.3736991 206.199833,10.1260387 205.707102,9.62604511 C205.209723,9.12838792 204.961034,8.53727399 204.961034,7.85036688 L204.961034,2.52333221 C204.961034,1.83876153 205.209723,1.24764759 205.707102,0.747653989 C206.199833,0.249996803 206.79018,0 207.471171,0 L212.772675,0 C213.453666,0 214.041689,0.249996803 214.536744,0.747653989 C215.034123,1.24764759 215.282812,1.83876153 215.282812,2.52333221 L215.282812,7.85036688 C215.282812,8.53727399 215.034123,9.12838792 214.536744,9.62604511 Z" id="LOGO" fill="#424242"></path>
                <path d="M44.2361943,30.4831115 C44.2361943,30.4498719 44.2338759,30.4237551 44.2338759,30.3905154 L44.199099,30.3905154 C44.1573667,29.7779566 43.9417501,29.2342513 43.496606,28.773645 C43.0004558,28.2679279 42.4138857,28.0162564 41.7322588,28.0162564 L38.3009398,28.0162564 C37.6193129,28.0162564 37.0350612,28.2679279 36.5412295,28.773645 C36.0914485,29.2342513 35.8781503,29.7779566 35.8340996,30.3905154 L35.7946858,30.3905154 C35.7946858,30.4190065 35.7970042,30.4546204 35.7970042,30.4831115 C35.7970042,31.6868609 35.7344058,32.9855805 35.6115275,34.3792706 C35.2405741,38.4321307 33.926008,41.6919884 31.6701475,44.1612177 C29.4119686,46.6304471 26.2148139,47.8626876 22.0694095,47.8626876 C17.9286421,47.8626876 14.7291689,46.6304471 12.4733085,44.1612177 C10.2151296,41.6919884 8.90288188,38.4321307 8.53192847,34.3792706 C8.46933008,33.6836127 8.43919012,32.384893 8.43919012,30.4831115 L8.43919012,30.3905154 L8.40209477,30.3905154 C8.35804406,29.7779566 8.14474585,29.2342513 7.69728329,28.773645 C7.2011331,28.2679279 6.61456302,28.0162564 5.93293613,28.0162564 L2.50393553,28.0162564 C1.82230863,28.0162564 1.23573855,28.2679279 0.741906823,28.773645 C0.294444271,29.2342513 0.0788276,29.7779566 0.0370953412,30.3905154 L-1.13686838e-13,30.3905154 L-1.13686838e-13,30.4831115 L-1.13686838e-13,30.5780819 L-1.13686838e-13,30.5804562 L-1.13686838e-13,32.0999819 C-1.13686838e-13,32.1142275 0.00695537647,32.1237245 0.00695537647,32.1379701 C0.0208661294,33.4343155 0.0463691765,34.3484052 0.0927383529,34.8541224 C0.64916847,41.3121069 2.82851976,46.4571262 6.63079223,50.286806 C10.4330647,54.1164858 15.5800433,56.0325128 22.0694095,56.0325128 C28.5634127,56.0325128 33.7103913,54.1164858 37.5126638,50.286806 C41.3149362,46.4571262 43.4942875,41.3121069 44.0507176,34.8541224 C44.113316,34.1228506 44.1156345,33.3274738 44.1480929,32.5653367 C44.1759144,32.4110099 44.2361943,32.2661801 44.2361943,32.0999819 L44.2361943,30.5804562 C44.2361943,30.5733334 44.2315574,30.5685849 44.2315574,30.5614621 C44.2315574,30.532971 44.2361943,30.5116026 44.2361943,30.4831115" id="icon" fill="#FFC419"></path>
            </g>
        </g>
    </g>
</svg>