<?xml version="1.0" encoding="UTF-8"?>
<svg width="393px" height="69px" viewBox="0 0 393 69" version="1.1" xmlns="http://www.w3.org/2000/svg" xmlns:xlink="http://www.w3.org/1999/xlink">
    <!-- Generator: Sketch 49.3 (51167) - http://www.bohemiancoding.com/sketch -->
    <title>Logo_Colour Background</title>
    <desc>Created with Sketch.</desc>
    <defs></defs>
    <g id="Page-1" stroke="none" stroke-width="1" fill="none" fill-rule="evenodd">
        <g id="Desktop-HD" transform="translate(-917.000000, -152.000000)" fill-rule="nonzero">
            <g id="Logo_Colour-Background" transform="translate(917.000000, 152.000000)">
                <path d="M286.218302,24.0074004 C290.043042,28.2175627 291.958883,33.9409698 291.958883,41.1822634 L291.958883,43.688865 C291.958883,44.3712177 291.70899,44.9584124 291.216147,45.4527699 C290.720991,45.9494484 290.135595,46.1954667 289.45996,46.1954667 L257.619523,46.1954667 L257.619523,46.7548102 C257.742155,50.8373216 258.99393,54.0402014 261.367906,56.3611289 C263.741883,58.6820563 266.812318,59.84252 270.576898,59.84252 C273.661217,59.84252 276.053704,59.4409996 277.749732,58.6379587 C279.44576,57.8325969 280.975193,56.6860587 282.33109,55.2006651 C282.823933,54.7063076 283.272813,54.3651313 283.675417,54.1794571 C284.073394,53.9961038 284.614827,53.9032667 285.292775,53.9032667 L288.069356,53.9032667 C288.809778,53.9032667 289.427567,54.149285 289.92041,54.6436426 C290.415567,55.140321 290.628438,55.7275157 290.568279,56.4098683 C290.323014,58.0786152 289.41137,59.7984224 287.837974,61.5600063 C286.266893,63.3239112 284.010921,64.8093047 281.081628,66.016187 C278.150022,67.2230693 274.649217,67.8288313 270.576898,67.8288313 C266.627213,67.8288313 263.110211,66.912065 260.025892,65.087816 C256.941574,63.2635671 254.486614,60.7407189 252.667954,57.5215926 C250.84698,54.3047871 249.752544,50.6841403 249.382334,46.6619731 C249.257387,44.8052311 249.197228,43.3801817 249.197228,42.3914666 C249.197228,41.4004306 249.257387,39.9777021 249.382334,38.1186392 C249.752544,34.2844671 250.84698,30.8170015 252.667954,27.7208843 C254.486614,24.627088 256.925377,22.1831514 259.979616,20.3867536 C263.036168,18.5926767 266.56474,17.6944777 270.576898,17.6944777 C277.178219,17.6944777 282.393563,19.7995589 286.218302,24.0074004 Z M283.626827,38.3971505 L283.626827,38.1186392 C283.626827,34.3448112 282.437525,31.3276055 280.063549,29.0670222 C277.689572,26.8087598 274.524271,25.6807891 270.576898,25.6807891 C266.997423,25.6807891 263.959381,26.8250063 261.460459,29.1134407 C258.961536,31.4041961 257.679682,34.4051553 257.619523,38.1186392 L257.619523,38.3971505 L283.626827,38.3971505 Z M313.297219,55.3378949 C313.816247,55.8570304 314.07698,56.4760934 314.07698,57.1902094 L314.07698,63.7196179 C314.07698,64.4361711 313.816247,65.0527969 313.297219,65.5719324 C312.775754,66.0935051 312.159256,66.3542915 311.445287,66.3542915 L304.914791,66.3542915 C304.200822,66.3542915 303.581887,66.0935051 303.062859,65.5719324 C302.541394,65.0527969 302.280661,64.4361711 302.280661,63.7196179 L302.280661,57.1902094 C302.280661,56.4760934 302.541394,55.8570304 303.062859,55.3378949 C303.581887,54.8163221 304.200822,54.557973 304.914791,54.557973 L311.445287,54.557973 C312.159256,54.557973 312.775754,54.8163221 313.297219,55.3378949 Z M392.22759,42.8533312 C392.22759,44.3387247 392.164991,45.7637742 392.042113,47.1261586 C391.485683,53.4367603 389.306332,58.46621 385.504059,62.2121869 C381.701787,65.9558429 376.554808,67.8288313 370.060805,67.8288313 C363.571439,67.8288313 358.42446,65.9558429 354.622188,62.2121869 C350.819915,58.46621 348.640564,53.4367603 348.084134,47.1261586 C348.021535,46.4438059 347.991396,45.0210774 347.991396,42.8533312 C347.991396,40.5648967 348.021535,39.0795032 348.084134,38.3971505 C348.577966,32.0842279 350.741088,27.057099 354.575819,23.3111221 C358.408231,19.5674662 363.571439,17.6944777 370.060805,17.6944777 C376.554808,17.6944777 381.715698,19.5674662 385.550428,23.3111221 C389.382841,27.057099 391.545963,32.0842279 392.042113,38.3971505 C392.164991,39.7595349 392.22759,41.2449285 392.22759,42.8533312 Z M379.661543,29.2991149 C377.403364,26.8853504 374.203891,25.6784681 370.060805,25.6784681 C365.920038,25.6784681 362.720564,26.8853504 360.464704,29.2991149 C358.206525,31.7128795 356.894277,34.9018338 356.523324,38.861336 C356.460726,39.6040328 356.428267,40.9362451 356.428267,42.8533312 C356.428267,44.712394 356.460726,45.9796204 356.523324,46.6596522 C356.894277,50.6237962 358.206525,53.8104296 360.464704,56.2241941 C362.720564,58.6379587 365.920038,59.84252 370.060805,59.84252 C374.203891,59.84252 377.403364,58.6379587 379.661543,56.2241941 C381.917403,53.8104296 383.23197,50.6237962 383.602923,46.6596522 C383.725801,45.2995887 383.7884,44.0300414 383.7884,42.8533312 C383.7884,41.6789419 383.725801,40.3467295 383.602923,38.861336 C383.23197,34.9018338 381.917403,31.7128795 379.661543,29.2991149 Z M334.521652,65.6066375 C334.024273,66.1066311 333.43625,66.3542915 332.752935,66.3542915 L329.315441,66.3542915 C328.632125,66.3542915 328.044102,66.1066311 327.549048,65.6066375 C327.051668,65.1089803 326.805303,64.5178664 326.805303,63.8309593 L326.805303,20.2824509 C326.805303,19.5978802 327.051668,19.0044298 327.549048,18.5044362 C328.044102,18.006779 328.632125,17.7591187 329.315441,17.7591187 L332.752935,17.7591187 C333.43625,17.7591187 334.024273,18.006779 334.521652,18.5044362 C335.016707,19.0044298 335.263072,19.5978802 335.263072,20.2824509 L335.263072,63.8309593 C335.263072,64.5178664 335.016707,65.1089803 334.521652,65.6066375 Z M333.684939,10.3736991 L328.383436,10.3736991 C327.702445,10.3736991 327.112098,10.1260387 326.619367,9.62604511 C326.121988,9.12838792 325.873298,8.53727399 325.873298,7.85036688 L325.873298,2.52333221 C325.873298,1.83876153 326.121988,1.24764759 326.619367,0.747653989 C327.112098,0.249996803 327.702445,0 328.383436,0 L333.684939,0 C334.36593,0 334.953953,0.249996803 335.449008,0.747653989 C335.946387,1.24764759 336.195077,1.83876153 336.195077,2.52333221 L336.195077,7.85036688 C336.195077,8.53727399 335.946387,9.12838792 335.449008,9.62604511 C334.953953,10.1260387 334.36593,10.3736991 333.684939,10.3736991 Z M236.625348,65.6066375 C236.105065,66.1066311 235.489964,66.3542915 234.775183,66.3542915 L231.179397,66.3542915 C230.464616,66.3542915 229.849515,66.1066311 229.331664,65.6066375 C228.811381,65.1089803 228.553671,64.5178664 228.553671,63.8309593 L228.553671,2.52333221 C228.553671,1.83876153 228.811381,1.24764759 229.331664,0.747653989 C229.849515,0.249996803 230.464616,0 231.179397,0 L234.775183,0 C235.489964,0 236.105065,0.249996803 236.625348,0.747653989 C237.143199,1.24764759 237.40091,1.83876153 237.40091,2.52333221 L237.40091,63.8309593 C237.40091,64.5178664 237.143199,65.1089803 236.625348,65.6066375 Z M73.2049047,31.9255647 C73.2049047,29.388791 73.9025772,27.0678635 75.3003034,24.9627824 C76.6956484,22.8600221 78.7767603,21.1727078 81.5388767,19.9031605 C84.3009932,18.6359342 87.6822047,18 91.6825112,18 C95.6185272,18 99.0164066,18.5570226 101.873768,19.6710678 C104.73113,20.785113 106.905106,22.1776694 108.398078,23.8510581 C109.888668,25.5198049 110.636345,27.1305286 110.636345,28.6785872 C110.636345,29.2959539 110.381563,29.8390509 109.872,30.3009155 C109.3672,30.7651009 108.762392,30.9995146 108.064719,30.9995146 L104.921621,30.9995146 C103.714386,30.9995146 102.761932,30.5655012 102.064259,29.6974743 C100.095061,27.2233657 96.6352718,25.9839904 91.6825112,25.9839904 C88.7608588,25.9839904 86.3963918,26.510841 84.5867294,27.5622211 C82.7770669,28.6159221 81.8722356,30.0688227 81.8722356,31.9255647 C81.8722356,33.4736233 82.3151267,34.6503335 83.2056711,35.4556953 C84.0938344,36.2587362 85.42727,36.9085959 87.2059777,37.4029534 C88.9823043,37.8996319 92.1254023,38.6423287 96.6352718,39.6310438 C102.223795,40.807754 106.190766,42.6041518 108.540946,45.0179163 C110.888745,47.4316809 112.065026,50.369975 112.065026,53.8351197 C112.065026,56.3742143 111.253059,58.7253138 109.636268,60.8907391 C108.017096,63.0584853 105.697871,64.8061437 102.683354,66.1360351 C99.6664564,67.4659265 96.1590448,68.1343536 92.1587382,68.1343536 C88.2203412,68.1343536 84.7438843,67.5285916 81.7293675,66.3217093 C78.7124696,65.114827 76.3789575,63.64568 74.728831,61.9119472 C73.0763234,60.1805353 72.2524508,58.5396396 72.2524508,56.991581 C72.2524508,56.3742143 72.5048511,55.8311173 73.0144139,55.3692527 C73.5215956,54.9027463 74.1240228,54.6706536 74.8240764,54.6706536 L78.2529106,54.6706536 C78.8220018,54.6706536 79.3315647,54.7333186 79.7768369,54.8563278 C80.219728,54.9816578 80.6340455,55.3205132 81.0150271,55.8775358 C83.1104257,58.7253138 86.8249961,60.1480423 92.1587382,60.1480423 C95.1423002,60.1480423 97.7615485,59.5446012 100.016483,58.3377189 C102.269037,57.1308366 103.397695,55.6315175 103.397695,53.8351197 C103.397695,52.3497261 102.840509,51.1590903 101.728519,50.2608914 C100.61891,49.3650134 99.0164066,48.6223167 96.9210079,48.0328011 C94.8256093,47.4456064 91.55393,46.6866632 87.1107323,45.7582922 C77.8385932,43.8412061 73.2049047,39.2295233 73.2049047,31.9255647 Z M137.741027,17.7499727 C139.60152,16.5841125 142.080627,16 145.182999,16 C152.438923,16 157.525046,18.7432005 160.439044,24.2296015 C162.236745,21.5809941 164.283288,19.547242 166.578671,18.1283452 C168.874055,16.7094484 171.883402,16 175.602063,16 C181.681225,16 186.190595,17.8611197 189.139477,21.5809941 C192.081381,25.3008685 193.555822,30.5673405 193.555822,37.3780451 L193.555822,63.5803394 C193.555822,64.2755988 193.309307,64.8739003 192.813951,65.3776087 C192.316269,65.8836818 191.725562,66.1343536 191.044157,66.1343536 L187.602244,66.1343536 C186.918513,66.1343536 186.332458,65.8836818 185.837101,65.3776087 C185.339419,64.8739003 185.090578,64.2755988 185.090578,63.5803394 L185.090578,38.3239763 C185.090578,28.8646643 181.430058,24.1350083 174.115994,24.1350083 C170.764781,24.1350083 168.099624,25.2701258 166.113548,27.5403607 C164.129797,29.8105955 163.136759,33.1828403 163.136759,37.6618245 L163.136759,63.5803394 C163.136759,64.2755988 162.887918,64.8739003 162.394887,65.3776087 C161.897205,65.8836818 161.308824,66.1343536 160.625093,66.1343536 L157.183181,66.1343536 C156.499449,66.1343536 155.911068,65.8836818 155.418038,65.3776087 C154.920356,64.8739003 154.671515,64.2755988 154.671515,63.5803394 L154.671515,38.3239763 C154.671515,28.8646643 151.010994,24.1350083 143.696931,24.1350083 C140.345717,24.1350083 137.680561,25.2701258 135.694484,27.5403607 C133.710733,29.8105955 132.717695,33.1828403 132.717695,37.6618245 L132.717695,63.5803394 C132.717695,64.2755988 132.468854,64.8739003 131.975823,65.3776087 C131.478142,65.8836818 130.889761,66.1343536 130.206029,66.1343536 L126.764117,66.1343536 C126.080386,66.1343536 125.492005,65.8836818 124.998974,65.3776087 C124.501292,64.8739003 124.252451,64.2755988 124.252451,63.5803394 L124.252451,19.4999455 C124.252451,18.8070509 124.501292,18.2063845 124.998974,17.7003114 C125.492005,17.1989678 126.080386,16.9459312 126.764117,16.9459312 L130.206029,16.9459312 C130.889761,16.9459312 131.478142,17.1989678 131.975823,17.7003114 C132.468854,18.2063845 132.717695,18.8070509 132.717695,19.4999455 L132.717695,22.4299674 C134.20609,20.4766194 135.880534,18.9181978 137.741027,17.7499727 Z M213.609387,65.6066375 C213.112008,66.1066311 212.523985,66.3542915 211.84067,66.3542915 L208.403176,66.3542915 C207.719861,66.3542915 207.131838,66.1066311 206.636783,65.6066375 C206.139404,65.1089803 205.893039,64.5178664 205.893039,63.8309593 L205.893039,20.2824509 C205.893039,19.5978802 206.139404,19.0044298 206.636783,18.5044362 C207.131838,18.006779 207.719861,17.7591187 208.403176,17.7591187 L211.84067,17.7591187 C212.523985,17.7591187 213.112008,18.006779 213.609387,18.5044362 C214.104442,19.0044298 214.350808,19.5978802 214.350808,20.2824509 L214.350808,63.8309593 C214.350808,64.5178664 214.104442,65.1089803 213.609387,65.6066375 Z M214.536744,9.62604511 C214.041689,10.1260387 213.453666,10.3736991 212.772675,10.3736991 L207.471171,10.3736991 C206.79018,10.3736991 206.199833,10.1260387 205.707102,9.62604511 C205.209723,9.12838792 204.961034,8.53727399 204.961034,7.85036688 L204.961034,2.52333221 C204.961034,1.83876153 205.209723,1.24764759 205.707102,0.747653989 C206.199833,0.249996803 206.79018,0 207.471171,0 L212.772675,0 C213.453666,0 214.041689,0.249996803 214.536744,0.747653989 C215.034123,1.24764759 215.282812,1.83876153 215.282812,2.52333221 L215.282812,7.85036688 C215.282812,8.53727399 215.034123,9.12838792 214.536744,9.62604511 Z" id="LOGO" fill="#424242"></path>
                <path d="M44.2338759,30.3905154 C44.1573667,29.7779566 43.9417501,29.2342513 43.496606,28.773645 C43.0004558,28.2679279 42.4138857,28.0162564 41.7322588,28.0162564 L38.3009398,28.0162564 C37.6193129,28.0162564 37.0350612,28.2679279 36.5412295,28.773645 C36.0914485,29.2342513 35.8781503,29.7779566 35.8340996,30.3905154 C35.7946858,30.4190065 35.7970042,30.4546204 35.7970042,30.4831115 C35.7970042,31.6868609 35.7344058,32.9855805 35.6115275,34.3792706 C35.2405741,38.4321307 33.926008,41.6919884 31.6701475,44.1612177 C29.4119686,46.6304471 26.2148139,47.8626876 22.0694095,47.8626876 C17.9286421,47.8626876 14.7291689,46.6304471 12.4733085,44.1612177 C10.2151296,41.6919884 8.90288188,38.4321307 8.53192847,34.3792706 C8.46933008,33.6836127 8.43919012,32.384893 8.43919012,30.4831115 L8.43919012,30.3905154 C8.35804406,29.7779566 8.14474585,29.2342513 7.69728329,28.773645 C7.2011331,28.2679279 6.61456302,28.0162564 5.93293613,28.0162564 L2.50393553,28.0162564 C1.82230863,28.0162564 1.23573855,28.2679279 0.741906823,28.773645 C0.294444271,29.2342513 0.0788276,29.7779566 0.0370953412,30.3905154 L-1.13686838e-13,30.4831115 L-1.13686838e-13,30.5780819 L-1.13686838e-13,32.0999819 C0.0208661294,33.4343155 0.0463691765,34.3484052 0.0927383529,34.8541224 C0.64916847,41.3121069 2.82851976,46.4571262 6.63079223,50.286806 C10.4330647,54.1164858 15.5800433,56.0325128 22.0694095,56.0325128 C28.5634127,56.0325128 33.7103913,54.1164858 37.5126638,50.286806 C41.3149362,46.4571262 43.4942875,41.3121069 44.0507176,34.8541224 C44.113316,34.1228506 44.1156345,33.3274738 44.1480929,32.5653367 C44.1759144,32.4110099 44.2361943,32.2661801 44.2361943,32.0999819 L44.2361943,30.5804562 C44.2315574,30.532971 44.2361943,30.5116026 44.2361943,30.4831115 C44.2361943,30.4498719 44.2338759,30.4237551 44.2338759,30.3905154 Z" id="icon" fill="#FFFFFF"></path>
            </g>
        </g>
    </g>
</svg>