<?xml version="1.0" encoding="UTF-8"?>
<svg width="150px" height="150px" viewBox="0 0 150 150" version="1.1" xmlns="http://www.w3.org/2000/svg" xmlns:xlink="http://www.w3.org/1999/xlink">
    <!-- Generator: Sketch 49.3 (51167) - http://www.bohemiancoding.com/sketch -->
    <title>Fill_Snow White</title>
    <desc>Created with Sketch.</desc>
    <defs></defs>
    <g id="Page-1" stroke="none" stroke-width="1" fill="none" fill-rule="evenodd">
        <g id="Desktop-HD" transform="translate(-371.000000, -81.000000)">
            <g id="Fill_Snow-White" transform="translate(371.000000, 81.000000)">
                <path d="M0,23.04156 C0,10.3172333 10.32375,0 23.04156,0 L126.95844,0 C139.682765,0 150,10.32375 150,23.04156 L150,126.95844 C150,139.682765 139.67625,150 126.95844,150 L23.04156,150 C10.3172333,150 0,139.67625 0,126.95844 L0,23.04156 Z" id="Background" fill="#FFFFFF" fill-rule="nonzero"></path>
                <path d="M100.709046,60.0001146 L96.2030769,60.0001146 C95.3059728,60.0001146 94.5350887,60.3209437 93.8869823,60.9709733 C93.2984828,61.5613575 92.9298107,62.2569252 92.9086769,63.0515979 C92.8956994,63.5373718 92.8273621,66.3814687 92.6666852,68.1772819 C92.1792556,73.3858976 90.4516592,77.5742173 87.4866533,80.744534 C84.5453077,83.8950075 80.3860758,85.4771266 75.0057432,85.5039668 C69.6197823,85.4793061 65.456761,83.8970724 62.5133467,80.744534 C59.5483408,77.5741027 57.8207444,73.3857829 57.3333148,68.1771673 C57.1726379,66.3814687 57.1041858,63.5372571 57.0913231,63.0514832 C57.0701905,62.2568106 56.7015172,61.5613575 56.1130177,60.9709733 C55.4649113,60.3209437 54.6940284,60 53.7969231,60 L49.290955,60 C48.3937349,60 47.6229669,60.3209437 46.972103,60.9709733 C46.3862462,61.5613575 46,62.1455473 46,63.1695142 C46,63.1695142 46.1588402,67.8491132 46.2437148,68.7829223 C46.9739408,77.0854614 49.8369586,83.6949621 54.8365586,88.6170468 C59.7868876,93.4946252 66.4749195,95.9540033 74.8996201,95.9980498 C75.0336521,95.9990828 75.066729,96 75.1003799,96 C83.5249669,95.954118 90.2131136,93.4947398 95.1633266,88.6170468 C100.163041,83.6949621 103.025944,77.0855761 103.756285,68.783037 C103.841161,67.8491132 104,63.1696289 104,63.1696289 C104,62.1455473 103.613755,61.5613575 103.027897,60.9709733 C102.377034,60.3209437 101.606265,60.0001146 100.709046,60.0001146 Z" id="Smile" fill="#FCC419"></path>
            </g>
        </g>
    </g>
</svg>