<?xml version="1.0" encoding="UTF-8"?>
<svg width="150px" height="150px" viewBox="0 0 150 150" version="1.1" xmlns="http://www.w3.org/2000/svg" xmlns:xlink="http://www.w3.org/1999/xlink">
    <!-- Generator: Sketch 49.3 (51167) - http://www.bohemiancoding.com/sketch -->
    <title>Outline_Snow White</title>
    <desc>Created with Sketch.</desc>
    <defs></defs>
    <g id="Page-1" stroke="none" stroke-width="1" fill="none" fill-rule="evenodd">
        <g id="Desktop-HD" transform="translate(-203.000000, -81.000000)" fill="#FFFFFF" fill-rule="nonzero">
            <path d="M225,93 C219.477153,93 215,97.4771525 215,103 L215,209 C215,214.522847 219.477153,219 225,219 L331,219 C336.522847,219 341,214.522847 341,209 L341,103 C341,97.4771525 336.522847,93 331,93 L225,93 Z M225,81 L331,81 C343.150264,81 353,90.8497355 353,103 L353,209 C353,221.150264 343.150264,231 331,231 L225,231 C212.849736,231 203,221.150264 203,209 L203,103 C203,90.8497355 212.849736,81 225,81 Z M303.709046,141.000115 L299.203077,141.000115 C298.305973,141.000115 297.535089,141.320944 296.886982,141.970973 C296.298483,142.561358 295.929811,143.256925 295.908677,144.051598 C295.895699,144.537372 295.827362,147.381469 295.666685,149.177282 C295.179256,154.385898 293.451659,158.574217 290.486653,161.744534 C287.545308,164.895008 283.386076,166.477127 278.005743,166.503967 C272.619782,166.479306 268.456761,164.897072 265.513347,161.744534 C262.548341,158.574103 260.820744,154.385783 260.333315,149.177167 C260.172638,147.381469 260.104186,144.537257 260.091323,144.051483 C260.070191,143.256811 259.701517,142.561358 259.113018,141.970973 C258.464911,141.320944 257.694028,141 256.796923,141 L252.290955,141 C251.393735,141 250.622967,141.320944 249.972103,141.970973 C249.386246,142.561358 249,143.145547 249,144.169514 C249,144.169514 249.15884,148.849113 249.243715,149.782922 C249.973941,158.085461 252.836959,164.694962 257.836559,169.617047 C262.786888,174.494625 269.47492,176.954003 277.89962,176.99805 C278.033652,176.999083 278.066729,177 278.10038,177 C286.524967,176.954118 293.213114,174.49474 298.163327,169.617047 C303.163041,164.694962 306.025944,158.085576 306.756285,149.783037 C306.841161,148.849113 307,144.169629 307,144.169629 C307,143.145547 306.613755,142.561358 306.027897,141.970973 C305.377034,141.320944 304.606265,141.000115 303.709046,141.000115 Z" id="Outline_Snow-White"></path>
        </g>
    </g>
</svg>