<?xml version="1.0" encoding="UTF-8"?>
<svg width="150px" height="150px" viewBox="0 0 150 150" version="1.1" xmlns="http://www.w3.org/2000/svg" xmlns:xlink="http://www.w3.org/1999/xlink">
    <!-- Generator: Sketch 49.3 (51167) - http://www.bohemiancoding.com/sketch -->
    <title>Ouitline_Happy Yellow</title>
    <desc>Created with Sketch.</desc>
    <defs></defs>
    <g id="Page-1" stroke="none" stroke-width="1" fill="none" fill-rule="evenodd">
        <g id="Desktop-HD" transform="translate(-203.000000, -550.000000)" fill="#FCC419" fill-rule="nonzero">
            <path d="M225,562 C219.477153,562 215,566.477153 215,572 L215,678 C215,683.522847 219.477153,688 225,688 L331,688 C336.522847,688 341,683.522847 341,678 L341,572 C341,566.477153 336.522847,562 331,562 L225,562 Z M225,550 L331,550 C343.150264,550 353,559.849736 353,572 L353,678 C353,690.150264 343.150264,700 331,700 L225,700 C212.849736,700 203,690.150264 203,678 L203,572 C203,559.849736 212.849736,550 225,550 Z M303.709046,610.000115 L299.203077,610.000115 C298.305973,610.000115 297.535089,610.320944 296.886982,610.970973 C296.298483,611.561358 295.929811,612.256925 295.908677,613.051598 C295.895699,613.537372 295.827362,616.381469 295.666685,618.177282 C295.179256,623.385898 293.451659,627.574217 290.486653,630.744534 C287.545308,633.895008 283.386076,635.477127 278.005743,635.503967 C272.619782,635.479306 268.456761,633.897072 265.513347,630.744534 C262.548341,627.574103 260.820744,623.385783 260.333315,618.177167 C260.172638,616.381469 260.104186,613.537257 260.091323,613.051483 C260.070191,612.256811 259.701517,611.561358 259.113018,610.970973 C258.464911,610.320944 257.694028,610 256.796923,610 L252.290955,610 C251.393735,610 250.622967,610.320944 249.972103,610.970973 C249.386246,611.561358 249,612.145547 249,613.169514 C249,613.169514 249.15884,617.849113 249.243715,618.782922 C249.973941,627.085461 252.836959,633.694962 257.836559,638.617047 C262.786888,643.494625 269.47492,645.954003 277.89962,645.99805 C278.033652,645.999083 278.066729,646 278.10038,646 C286.524967,645.954118 293.213114,643.49474 298.163327,638.617047 C303.163041,633.694962 306.025944,627.085576 306.756285,618.783037 C306.841161,617.849113 307,613.169629 307,613.169629 C307,612.145547 306.613755,611.561358 306.027897,610.970973 C305.377034,610.320944 304.606265,610.000115 303.709046,610.000115 Z" id="Ouitline_Happy-Yellow"></path>
        </g>
    </g>
</svg>