<?xml version="1.0" encoding="UTF-8"?>
<svg width="150px" height="150px" viewBox="0 0 150 150" version="1.1" xmlns="http://www.w3.org/2000/svg" xmlns:xlink="http://www.w3.org/1999/xlink">
    <!-- Generator: Sketch 49.3 (51167) - http://www.bohemiancoding.com/sketch -->
    <title>Outline_Dark Grey</title>
    <desc>Created with Sketch.</desc>
    <defs></defs>
    <g id="Page-1" stroke="none" stroke-width="1" fill="none" fill-rule="evenodd">
        <g id="Desktop-HD" transform="translate(-203.000000, -341.000000)" fill="#424242" fill-rule="nonzero">
            <path d="M225,353 C219.477153,353 215,357.477153 215,363 L215,469 C215,474.522847 219.477153,479 225,479 L331,479 C336.522847,479 341,474.522847 341,469 L341,363 C341,357.477153 336.522847,353 331,353 L225,353 Z M225,341 L331,341 C343.150264,341 353,350.849736 353,363 L353,469 C353,481.150264 343.150264,491 331,491 L225,491 C212.849736,491 203,481.150264 203,469 L203,363 C203,350.849736 212.849736,341 225,341 Z M303.709046,401.000115 L299.203077,401.000115 C298.305973,401.000115 297.535089,401.320944 296.886982,401.970973 C296.298483,402.561358 295.929811,403.256925 295.908677,404.051598 C295.895699,404.537372 295.827362,407.381469 295.666685,409.177282 C295.179256,414.385898 293.451659,418.574217 290.486653,421.744534 C287.545308,424.895008 283.386076,426.477127 278.005743,426.503967 C272.619782,426.479306 268.456761,424.897072 265.513347,421.744534 C262.548341,418.574103 260.820744,414.385783 260.333315,409.177167 C260.172638,407.381469 260.104186,404.537257 260.091323,404.051483 C260.070191,403.256811 259.701517,402.561358 259.113018,401.970973 C258.464911,401.320944 257.694028,401 256.796923,401 L252.290955,401 C251.393735,401 250.622967,401.320944 249.972103,401.970973 C249.386246,402.561358 249,403.145547 249,404.169514 C249,404.169514 249.15884,408.849113 249.243715,409.782922 C249.973941,418.085461 252.836959,424.694962 257.836559,429.617047 C262.786888,434.494625 269.47492,436.954003 277.89962,436.99805 C278.033652,436.999083 278.066729,437 278.10038,437 C286.524967,436.954118 293.213114,434.49474 298.163327,429.617047 C303.163041,424.694962 306.025944,418.085576 306.756285,409.783037 C306.841161,408.849113 307,404.169629 307,404.169629 C307,403.145547 306.613755,402.561358 306.027897,401.970973 C305.377034,401.320944 304.606265,401.000115 303.709046,401.000115 Z" id="Outline_Dark-Grey"></path>
        </g>
    </g>
</svg>